<?xml version="1.0" encoding="utf-8"?>
<!-- Generator: Adobe Illustrator 15.0.0, SVG Export Plug-In . SVG Version: 6.00 Build 0)  -->
<!DOCTYPE svg PUBLIC "-//W3C//DTD SVG 1.1//EN" "http://www.w3.org/Graphics/SVG/1.1/DTD/svg11.dtd">
<svg version="1.1" id="Camada_1" xmlns="http://www.w3.org/2000/svg" xmlns:xlink="http://www.w3.org/1999/xlink" x="0px" y="0px"
	 width="17px" height="17px" viewBox="0 0 17 17" enable-background="new 0 0 17 17" xml:space="preserve">
<path fill="#E00000" d="M8.5,0.5c-4.411,0-8,3.589-8,8s3.589,8,8,8s8-3.589,8-8S12.911,0.5,8.5,0.5z M8.5,1.5
	c1.75,0,3.348,0.65,4.577,1.716l-9.86,9.861C2.15,11.85,1.5,10.25,1.5,8.5C1.5,4.641,4.64,1.5,8.5,1.5z M8.5,15.5
	c-1.75,0-3.348-0.65-4.577-1.716l9.86-9.861C14.85,5.151,15.5,6.75,15.5,8.5C15.5,12.359,12.359,15.5,8.5,15.5z"/>
</svg>
