<?xml version="1.0" encoding="utf-8"?>
<!-- Generator: Adobe Illustrator 15.0.0, SVG Export Plug-In . SVG Version: 6.00 Build 0)  -->
<!DOCTYPE svg PUBLIC "-//W3C//DTD SVG 1.1//EN" "http://www.w3.org/Graphics/SVG/1.1/DTD/svg11.dtd">
<svg version="1.1" id="Camada_1" xmlns="http://www.w3.org/2000/svg" xmlns:xlink="http://www.w3.org/1999/xlink" x="0px" y="0px"
	 width="17px" height="17px" viewBox="0 0 17 17" enable-background="new 0 0 17 17" xml:space="preserve">
<path fill="#00601B" d="M16.499,1.843L15.096,0.44c-0.566-0.566-1.555-0.566-2.121,0L5.438,7.976l-1.722,5.288l5.249-1.766
	l7.534-7.534c0.283-0.283,0.438-0.66,0.438-1.061C16.938,2.502,16.782,2.126,16.499,1.843z M5.584,10.758l0.638-1.957l1.92,1.919
	L6.2,11.373L5.584,10.758z M6.832,7.996l3.986-3.986l2.109,2.11l-3.986,3.985L6.832,7.996z M11.525,3.303l0.729-0.729l2.109,2.11
	l-0.729,0.729L11.525,3.303z M15.792,3.257l-0.72,0.721l-2.11-2.11l0.72-0.721c0.19-0.189,0.52-0.189,0.707,0l1.403,1.403
	c0.095,0.095,0.146,0.22,0.146,0.354C15.938,3.038,15.887,3.162,15.792,3.257z M15,7.5h1V17H0V2h7.5v1H1v13h14V7.5z"/>
</svg>
